<svg width="126" height="32" viewBox="0 0 126 32" fill="none" xmlns="http://www.w3.org/2000/svg">
<path d="M16.647 4.68881C14.5642 2.60601 11.1874 2.60601 9.10457 4.68881L1.5621 12.2313C-0.520699 14.3141 -0.520699 17.691 1.5621 19.7738L9.10457 27.3162C11.1874 29.399 14.5642 29.399 16.647 27.3162L20.2459 23.7174C17.2499 22.5615 15.1245 19.6544 15.1245 16.2509C15.1245 12.7118 17.4227 9.70937 20.6081 8.65469C20.5458 8.5892 20.4825 8.52431 20.4183 8.46004L16.647 4.68881Z" fill="#8B5CF6"/>
<path d="M20.2461 23.7199C21.1392 24.0644 22.1097 24.2533 23.1243 24.2533C27.5426 24.2533 31.1243 20.6716 31.1243 16.2533C31.1243 11.835 27.5426 8.2533 23.1243 8.2533C22.2454 8.2533 21.3995 8.39505 20.6083 8.65695C24.5832 12.8357 24.52 19.446 20.4186 23.5474L20.2461 23.7199Z" fill="#EC4899"/>
<path d="M46.4045 22.0001L45.4325 19.2281H40.4105L39.4205 22.0001H36.6665L41.5265 9.07605H44.5145L49.3385 22.0001H46.4045ZM42.9485 12.0641L41.1845 17.0501H44.6765L42.9485 12.0641Z" fill="#1A1A1A"/>
<path d="M52.4969 22.0001H49.9769V9.07605H52.4969V22.0001Z" fill="#1A1A1A"/>
<path d="M63.6146 17.1941C63.6146 20.0381 61.9406 22.1801 59.3486 22.1801C58.2146 22.1801 57.2426 21.6941 56.5226 20.7581V25.4741H54.0206V12.3881H56.3246V13.7921C57.0626 12.7661 58.1246 12.2081 59.3486 12.2081C61.9406 12.2081 63.6146 14.3681 63.6146 17.1941ZM61.0406 17.1941C61.0406 15.3941 60.0146 14.4221 58.7906 14.4221C57.5666 14.4221 56.5406 15.3761 56.5406 17.1941C56.5406 19.0121 57.5666 19.9481 58.7906 19.9481C60.0146 19.9481 61.0406 19.0301 61.0406 17.1941Z" fill="#1A1A1A"/>
<path d="M66.9999 16.7621V22.0001H64.4979V9.07605H66.9999V13.6481C67.6659 12.7661 68.4939 12.2081 69.7539 12.2081C71.6799 12.2081 73.0119 13.4681 73.0119 15.7901V22.0001H70.5279V16.6361C70.5279 15.2141 69.9699 14.4221 68.8359 14.4221C67.8459 14.4221 66.9999 15.2141 66.9999 16.7621Z" fill="#1A1A1A"/>
<path d="M80.1718 22.0001V20.8121C79.5418 21.7121 78.5878 22.1801 77.2738 22.1801C75.2758 22.1801 73.9438 21.0101 73.9438 19.2101C73.9438 17.3381 75.4558 16.3301 78.2638 16.3301C78.8038 16.3301 79.2718 16.3661 79.8658 16.4381V15.8621C79.8658 14.7821 79.2538 14.1521 78.2098 14.1521C77.1298 14.1521 76.4818 14.7821 76.3918 15.8621H74.1418C74.2858 13.6481 75.8878 12.2081 78.2098 12.2081C80.7298 12.2081 82.2058 13.5941 82.2058 15.9521V22.0001H80.1718ZM76.3018 19.1381C76.3018 19.9481 76.8778 20.4521 77.8138 20.4521C79.0918 20.4521 79.8658 19.7501 79.8658 18.6341V17.9501C79.2718 17.8601 78.8578 17.8241 78.4258 17.8241C77.0038 17.8241 76.3018 18.2741 76.3018 19.1381Z" fill="#1A1A1A"/>
<path d="M92.7714 22.0001L90.3594 12.9641L87.9474 22.0001H85.1754L81.8634 9.07605H84.5274L86.6154 17.8421L88.9914 9.07605H91.7814L94.0854 17.8781L96.1914 9.07605H98.8734L95.5434 22.0001H92.7714Z" fill="#1A1A1A"/>
<path d="M104.484 22.0001V20.8121C103.854 21.7121 102.9 22.1801 101.586 22.1801C99.5878 22.1801 98.2558 21.0101 98.2558 19.2101C98.2558 17.3381 99.7677 16.3301 102.576 16.3301C103.116 16.3301 103.584 16.3661 104.178 16.4381V15.8621C104.178 14.7821 103.566 14.1521 102.522 14.1521C101.442 14.1521 100.794 14.7821 100.704 15.8621H98.4538C98.5978 13.6481 100.2 12.2081 102.522 12.2081C105.042 12.2081 106.518 13.5941 106.518 15.9521V22.0001H104.484ZM100.614 19.1381C100.614 19.9481 101.19 20.4521 102.126 20.4521C103.404 20.4521 104.178 19.7501 104.178 18.6341V17.9501C103.584 17.8601 103.17 17.8241 102.738 17.8241C101.316 17.8241 100.614 18.2741 100.614 19.1381Z" fill="#1A1A1A"/>
<path d="M116.278 12.3881L112.75 22.0001H110.014L106.468 12.3881H109.168L111.454 19.1561L113.758 12.3881H116.278Z" fill="#1A1A1A"/>
<path d="M120.498 22.1621C117.618 22.1621 115.692 20.1641 115.692 17.1581C115.692 14.2961 117.69 12.2081 120.462 12.2081C123.504 12.2081 125.52 14.6741 125.07 17.8061H118.248C118.41 19.3721 119.166 20.2361 120.444 20.2361C121.542 20.2361 122.28 19.6961 122.568 18.7421H125.052C124.512 20.9201 122.838 22.1621 120.498 22.1621ZM120.408 14.0441C119.238 14.0441 118.5 14.8001 118.284 16.2221H122.424C122.352 14.8901 121.596 14.0441 120.408 14.0441Z" fill="#1A1A1A"/>
</svg>
